<?xml version="1.0" encoding="utf-8"?>
<!-- Generator: Adobe Illustrator 16.0.0, SVG Export Plug-In . SVG Version: 6.00 Build 0)  -->
<!DOCTYPE svg PUBLIC "-//W3C//DTD SVG 1.1//EN" "http://www.w3.org/Graphics/SVG/1.1/DTD/svg11.dtd">
<svg version="1.1" id="Layer_1" xmlns="http://www.w3.org/2000/svg" xmlns:xlink="http://www.w3.org/1999/xlink" x="0px" y="0px"
	 width="150px" height="150px" viewBox="0 0 150 150" enable-background="new 0 0 150 150" xml:space="preserve">
<g>
	<path fill="#FFFFFF" stroke="#FFFFFF" stroke-width="0.6" stroke-miterlimit="10" d="M47.619,27.31H43.48v7.611h-2.006V17.337
		h7.148v1.783H43.48v6.406h4.139V27.31z"/>
	<path fill="#FFFFFF" stroke="#FFFFFF" stroke-width="0.6" stroke-miterlimit="10" d="M54.227,33.313
		c1.439,0,2.083-0.954,2.083-2.537V17.337h1.876v13.338c0,2.663-1.26,4.446-4.036,4.446c-2.751,0-4.011-1.783-4.011-4.446V17.337
		h1.98v13.438C52.118,32.358,52.76,33.313,54.227,33.313z"/>
	<path fill="#FFFFFF" stroke="#FFFFFF" stroke-width="0.6" stroke-miterlimit="10" d="M60.139,34.921V17.337h2.546l4.165,12.71
		v-12.71h1.774v17.583h-2.083l-4.603-14.218v14.218H60.139z"/>
</g>
<g>
	<g>
		<path fill="#FFFFFF" stroke="#FFFFFF" stroke-width="0.6" stroke-miterlimit="10" d="M49.586,41.582v8.262
			c0,2.504-1.259,4.048-4.003,4.048h-4.128V37.51h4.128C48.327,37.51,49.586,39.054,49.586,41.582z M47.647,49.914v-8.425
			c0-1.498-0.68-2.317-2.115-2.317h-2.114v13.06h2.14C46.968,52.231,47.647,51.412,47.647,49.914z"/>
		<path fill="#FFFFFF" stroke="#FFFFFF" stroke-width="0.6" stroke-miterlimit="10" d="M45.583,54.267h-4.503V37.135h4.503
			c2.824,0,4.378,1.58,4.378,4.447v8.262C49.961,52.696,48.407,54.267,45.583,54.267z M41.828,53.517h3.754
			c2.408,0,3.628-1.236,3.628-3.673v-8.262c0-2.453-1.221-3.697-3.628-3.697h-3.754V53.517z M45.558,52.606h-2.515V38.797h2.489
			c1.606,0,2.49,0.955,2.49,2.691v8.425C48.022,51.65,47.147,52.606,45.558,52.606z M43.793,51.856h1.765
			c1.17,0,1.716-0.617,1.716-1.942v-8.425c0-1.325-0.554-1.942-1.741-1.942h-1.739V51.856z"/>
	</g>
	<g>
		<path fill="#FFFFFF" stroke="#FFFFFF" stroke-width="0.6" stroke-miterlimit="10" d="M52.708,53.892h-1.813l3.374-16.382h2.846
			l3.374,16.382h-1.963l-0.681-3.3h-4.456L52.708,53.892z M57.567,49.024l-1.989-9.455l-1.939,9.455H57.567z"/>
		<path fill="#FFFFFF" stroke="#FFFFFF" stroke-width="0.6" stroke-miterlimit="10" d="M60.948,54.267h-2.729l-0.68-3.3h-3.845
			l-0.68,3.3h-2.579l3.528-17.132h3.457L60.948,54.267z M58.83,53.517h1.198l-3.22-15.632h-1.201l2.422,11.515H53.18l2.362-11.515
			h-0.967l-3.219,15.632h1.046l0.68-3.299h5.068L58.83,53.517z M54.1,48.65h3.005l-1.521-7.236L54.1,48.65z"/>
	</g>
</g>
<g>
	<g>
		<path fill="#FFFFFF" stroke="#FFFFFF" stroke-width="0.6" stroke-miterlimit="10" d="M46.061,73.722l-2.967-13.547l0.044,13.58
			l-1.713,0.006l-0.057-17.036l2.747-0.009l2.941,13.595l2.752-13.613l2.746-0.009l0.057,17.036l-1.864,0.005l-0.045-13.702
			l-2.752,13.687L46.061,73.722z"/>
		<path fill="#FFFFFF" stroke="#FFFFFF" stroke-width="0.6" stroke-miterlimit="10" d="M60.874,65.908l-4.31,0.015l0.021,6.061
			l5.29-0.019l0.006,1.729l-7.257,0.024l-0.056-17.037l7.257-0.024l0.005,1.728l-5.291,0.018l0.02,5.816l4.309-0.015L60.874,65.908z
			"/>
		<path fill="#FFFFFF" stroke="#FFFFFF" stroke-width="0.6" stroke-miterlimit="10" d="M63.668,73.687l-0.056-17.036l2.495-0.008
			l4.122,12.302L70.189,56.63l1.739-0.005l0.056,17.036l-2.041,0.007l-4.556-13.761l0.046,13.775L63.668,73.687z"/>
	</g>
</g>
<g>
	<path fill="#FFFFFF" stroke="#FFFFFF" stroke-width="0.6" stroke-miterlimit="10" d="M44.081,78.148h-3.303v-1.683h8.601v1.683
		h-3.303v14.914h-1.996V78.148z"/>
	<path fill="#FFFFFF" stroke="#FFFFFF" stroke-width="0.6" stroke-miterlimit="10" d="M50.939,93.063h-1.842l3.43-16.597h2.892
		l3.43,16.597h-1.996l-0.691-3.344h-4.531L50.939,93.063z M55.88,88.129l-2.022-9.576l-1.971,9.576H55.88z"/>
	<path fill="#FFFFFF" stroke="#FFFFFF" stroke-width="0.6" stroke-miterlimit="10" d="M60.385,93.063V76.466h2.534l4.146,11.995
		V76.466h1.766v16.597h-2.073l-4.582-13.421v13.421H60.385z"/>
</g>
<g>
	<path fill="#FFFFFF" stroke="#FFFFFF" stroke-width="0.6" stroke-miterlimit="10" d="M49.648,100.02v8.7
		c0,2.637-1.268,4.262-4.031,4.262H41.46V95.732h4.157C48.38,95.732,49.648,97.359,49.648,100.02z M47.696,108.792v-8.87
		c0-1.578-0.684-2.44-2.129-2.44h-2.129v13.751h2.154C47.012,111.232,47.696,110.37,47.696,108.792z"/>
	<path fill="#FFFFFF" stroke="#FFFFFF" stroke-width="0.6" stroke-miterlimit="10" d="M55.402,95.559c2.738,0,4.082,1.7,4.082,4.337
		v8.922c0,2.611-1.344,4.337-4.082,4.337c-2.712,0-4.055-1.726-4.055-4.337v-8.922C51.347,97.259,52.69,95.559,55.402,95.559z
		 M55.402,111.405c1.445,0,2.104-0.913,2.104-2.489v-9.118c0-1.553-0.659-2.489-2.104-2.489c-1.419,0-2.103,0.937-2.103,2.489v9.118
		C53.299,110.492,53.983,111.405,55.402,111.405z"/>
</g>
<g>
	<path fill="#8C5F25" stroke="#8C5F25" stroke-width="0.6" stroke-miterlimit="10" d="M48.428,119.725v1.476h-1.692v-1.573
		c0-1.55-0.573-2.482-1.876-2.482c-1.28,0-1.875,0.933-1.875,2.482v9.096c0,1.55,0.595,2.484,1.875,2.484
		c1.304,0,1.876-0.935,1.876-2.484v-3.441h-1.647v-1.723h3.339v5.065c0,2.606-1.144,4.327-3.613,4.327
		c-2.447,0-3.59-1.721-3.59-4.327v-8.899c0-2.606,1.143-4.326,3.59-4.326C47.285,115.398,48.428,117.118,48.428,119.725z"/>
	<path fill="#8C5F25" stroke="#8C5F25" stroke-width="0.6" stroke-miterlimit="10" d="M55.813,124.912h-3.91v6.122h4.802v1.746
		h-6.586v-17.211h6.586v1.746h-4.802v5.876h3.91V124.912z"/>
	<path fill="#8C5F25" stroke="#8C5F25" stroke-width="0.6" stroke-miterlimit="10" d="M65.485,119.503v1.402
		c0,1.892-0.617,3.072-1.989,3.539c1.464,0.468,2.012,1.746,2.012,3.591v2.679c0,0.763,0.023,1.476,0.321,2.066h-1.807
		c-0.206-0.493-0.297-0.935-0.297-2.09v-2.704c0-1.943-0.846-2.558-2.333-2.558h-1.258v7.352H58.35v-17.211h3.568
		C64.433,115.569,65.485,116.945,65.485,119.503z M63.725,121.321v-1.646c0-1.55-0.526-2.36-1.853-2.36h-1.738v6.367h1.327
		C62.879,123.683,63.725,123.191,63.725,121.321z"/>
	<path fill="#8C5F25" stroke="#8C5F25" stroke-width="0.6" stroke-miterlimit="10" d="M68.547,132.78H66.9l3.065-17.211h2.584
		l3.064,17.211H73.83l-0.617-3.467h-4.048L68.547,132.78z M72.961,127.666l-1.807-9.933l-1.761,9.933H72.961z"/>
	<path fill="#8C5F25" stroke="#8C5F25" stroke-width="0.6" stroke-miterlimit="10" d="M84.051,119.725v1.548h-1.691v-1.646
		c0-1.55-0.572-2.482-1.875-2.482c-1.282,0-1.875,0.933-1.875,2.482v9.096c0,1.55,0.593,2.484,1.875,2.484
		c1.303,0,1.875-0.935,1.875-2.484v-2.237h1.691v2.139c0,2.459-1.03,4.156-3.224,4.304v0.762c1.074,0,1.691,0.468,1.691,1.253
		c0,0.984-0.801,1.573-2.174,1.573c-1.324,0-2.103-0.565-2.103-1.523v-0.196h1.165v0.173c0,0.393,0.343,0.663,0.938,0.713
		c0.619,0,0.984-0.295,0.984-0.788c0-0.468-0.411-0.736-1.121-0.736h-0.206v-1.229c-2.149-0.173-3.155-1.87-3.155-4.304v-8.899
		c0-2.606,1.144-4.326,3.591-4.326C82.908,115.398,84.051,117.118,84.051,119.725z"/>
	<path fill="#8C5F25" stroke="#8C5F25" stroke-width="0.6" stroke-miterlimit="10" d="M92.9,119.725v8.899
		c0,2.606-1.212,4.327-3.683,4.327c-2.447,0-3.659-1.721-3.659-4.327v-8.899c0-2.632,1.212-4.326,3.659-4.326
		C91.688,115.398,92.9,117.093,92.9,119.725z M90.43,114.463c-0.891,0.025-1.395-0.713-2.103-0.713c-0.413,0-0.71,0.196-0.962,0.738
		l-0.892-0.663c0.39-1.01,0.984-1.402,1.692-1.427c0.915,0,1.417,0.737,2.104,0.737c0.39-0.026,0.664-0.223,0.914-0.737l0.869,0.664
		C91.711,114.045,91.14,114.463,90.43,114.463z M87.321,119.627v9.096c0,1.573,0.616,2.484,1.896,2.484
		c1.303,0,1.897-0.911,1.897-2.484v-9.096c0-1.55-0.595-2.482-1.897-2.482C87.938,117.145,87.321,118.077,87.321,119.627z"/>
	<path fill="#8C5F25" stroke="#8C5F25" stroke-width="0.6" stroke-miterlimit="10" d="M100.284,124.912h-3.909v6.122h4.801v1.746
		H94.59v-17.211h6.586v1.746h-4.801v5.876h3.909V124.912z"/>
	<path fill="#8C5F25" stroke="#8C5F25" stroke-width="0.6" stroke-miterlimit="10" d="M109.796,119.699v0.468h-1.691v-0.565
		c0-1.548-0.549-2.457-1.831-2.457c-1.28,0-1.829,0.909-1.829,2.433c0,3.86,5.376,4.229,5.376,9.072
		c0,2.604-1.168,4.302-3.613,4.302c-2.448,0-3.592-1.697-3.592-4.302v-0.983h1.67v1.082c0,1.548,0.595,2.459,1.875,2.459
		s1.875-0.911,1.875-2.459c0-3.836-5.352-4.205-5.352-9.049c0-2.655,1.144-4.301,3.545-4.301
		C108.652,115.398,109.796,117.093,109.796,119.699z"/>
</g>
<g>
	<defs>
		<rect id="SVGID_1_" width="150" height="150"/>
	</defs>
	<clipPath id="SVGID_2_">
		<use xlink:href="#SVGID_1_"  overflow="visible"/>
	</clipPath>
	<g clip-path="url(#SVGID_2_)">
		<polygon fill="#FFFFFF" points="77.791,99.906 79.434,105.301 81.076,110.701 82.719,105.301 84.363,99.906 81.076,99.906 		"/>
		<path fill="#FFFFFF" d="M97.601,37.802h-8.941l-2.656-2.02H75.92l-2.656,2.02h-8.711c-0.615,0-1.114,0.498-1.114,1.113v3.419
			c0,0.615,0.499,1.114,1.114,1.114H75.92h1.871v56.579h6.572V43.448h1.64h11.598c0.614,0,1.112-0.499,1.112-1.114v-3.419
			C98.713,38.3,98.215,37.802,97.601,37.802z"/>
	</g>
	<polygon clip-path="url(#SVGID_2_)" fill="#FFFFFF" points="108.104,22.988 102.354,19.846 96.483,16.25 96.483,14.23 
		90.219,14.23 90.219,16.25 78.683,16.25 78.683,28.202 90.219,28.202 90.219,110.701 96.483,110.701 96.483,28.202 108.104,28.202 
		108.104,22.989 108.028,22.989 	"/>
</g>
</svg>
