<?xml version="1.0" encoding="utf-8"?>
<!-- Generator: Adobe Illustrator 16.0.0, SVG Export Plug-In . SVG Version: 6.00 Build 0)  -->
<!DOCTYPE svg PUBLIC "-//W3C//DTD SVG 1.1//EN" "http://www.w3.org/Graphics/SVG/1.1/DTD/svg11.dtd">
<svg version="1.1" id="Layer_1" xmlns="http://www.w3.org/2000/svg" xmlns:xlink="http://www.w3.org/1999/xlink" x="0px" y="0px"
	 width="300px" height="300px" viewBox="0 0 300 300" enable-background="new 0 0 300 300" xml:space="preserve">
<g>
	<path fill="#FFFFFF" stroke="#FFFFFF" stroke-width="0.6" stroke-miterlimit="10" d="M95.238,54.619h-8.277v15.223h-4.012V34.675
		h14.296v3.566H86.961v12.812h8.277V54.619z"/>
	<path fill="#FFFFFF" stroke="#FFFFFF" stroke-width="0.6" stroke-miterlimit="10" d="M108.453,66.625
		c2.879,0,4.165-1.908,4.165-5.073V34.675h3.753v26.676c0,5.326-2.52,8.893-8.072,8.893c-5.503,0-8.022-3.566-8.022-8.893V34.675
		h3.96v26.877C104.236,64.717,105.521,66.625,108.453,66.625z"/>
	<path fill="#FFFFFF" stroke="#FFFFFF" stroke-width="0.6" stroke-miterlimit="10" d="M120.277,69.842V34.675h5.092l8.33,25.421
		V34.675h3.549v35.167h-4.165l-9.205-28.436v28.436H120.277z"/>
</g>
<g>
	<g>
		<path fill="#FFFFFF" d="M99.172,83.164v16.523c0,5.008-2.519,8.097-8.007,8.097h-8.257V75.02h8.257
			C96.653,75.02,99.172,78.108,99.172,83.164z M95.295,99.827v-16.85c0-2.996-1.359-4.635-4.23-4.635h-4.229v26.119h4.279
			C93.936,104.462,95.295,102.823,95.295,99.827z"/>
		<path fill="#FFFFFF" d="M91.165,108.534h-9.007V74.27h9.007c5.648,0,8.757,3.159,8.757,8.895v16.523
			C99.922,105.393,96.813,108.534,91.165,108.534z M83.656,107.034h7.509c4.815,0,7.257-2.472,7.257-7.347V83.164
			c0-4.906-2.441-7.395-7.257-7.395h-7.509V107.034z M91.115,105.212h-5.029V77.595h4.979c3.212,0,4.98,1.91,4.98,5.383v16.85
			C96.045,103.3,94.295,105.212,91.115,105.212z M87.586,103.712h3.529c2.341,0,3.432-1.233,3.432-3.885v-16.85
			c0-2.649-1.108-3.885-3.482-3.885h-3.479V103.712z"/>
	</g>
	<g>
		<path fill="#FFFFFF" d="M105.417,107.784h-3.627l6.747-32.765h5.691l6.747,32.765h-3.927l-1.361-6.6h-8.911L105.417,107.784z
			 M115.135,98.049l-3.979-18.909l-3.878,18.909H115.135z"/>
		<path fill="#FFFFFF" d="M121.896,108.534h-5.459l-1.359-6.6h-7.69l-1.359,6.6h-5.157l7.057-34.265h6.914L121.896,108.534z
			 M117.659,107.034h2.396l-6.439-31.265h-2.402l4.844,23.029h-9.698l4.724-23.029h-1.934l-6.438,31.265h2.093l1.359-6.598H116.3
			L117.659,107.034z M108.199,97.301h6.011l-3.042-14.473L108.199,97.301z"/>
	</g>
</g>
<g>
	<g>
		<path fill="#FFFFFF" stroke="#FFFFFF" stroke-width="0.6" stroke-miterlimit="10" d="M92.122,147.443l-5.934-27.094l0.088,27.159
			l-3.426,0.013l-0.113-34.072l5.494-0.019l5.883,27.19l5.504-27.227l5.492-0.019l0.113,34.072l-3.729,0.011l-0.09-27.403
			l-5.504,27.373L92.122,147.443z"/>
		<path fill="#FFFFFF" stroke="#FFFFFF" stroke-width="0.6" stroke-miterlimit="10" d="M121.747,131.816l-8.619,0.029l0.043,12.121
			l10.58-0.037l0.012,3.457l-14.514,0.048l-0.111-34.073l14.514-0.048l0.01,3.456l-10.582,0.036l0.039,11.633l8.617-0.029
			L121.747,131.816z"/>
		<path fill="#FFFFFF" stroke="#FFFFFF" stroke-width="0.6" stroke-miterlimit="10" d="M127.337,147.374l-0.111-34.072l4.99-0.017
			l8.244,24.604l-0.082-24.629l3.479-0.011l0.112,34.071l-4.082,0.015l-9.112-27.521l0.092,27.55L127.337,147.374z"/>
	</g>
</g>
<g>
	<path fill="#FFFFFF" stroke="#FFFFFF" stroke-width="0.6" stroke-miterlimit="10" d="M88.161,156.297h-6.605v-3.365h17.202v3.365
		h-6.605v29.828h-3.991V156.297z"/>
	<path fill="#FFFFFF" stroke="#FFFFFF" stroke-width="0.6" stroke-miterlimit="10" d="M101.879,186.125h-3.685l6.86-33.193h5.784
		l6.859,33.193h-3.991l-1.383-6.688h-9.062L101.879,186.125z M111.76,176.258l-4.044-19.152l-3.942,19.152H111.76z"/>
	<path fill="#FFFFFF" stroke="#FFFFFF" stroke-width="0.6" stroke-miterlimit="10" d="M120.771,186.125v-33.193h5.067l8.293,23.99
		v-23.99h3.532v33.193h-4.146l-9.163-26.842v26.842H120.771z"/>
</g>
<g>
	<path fill="#FFFFFF" stroke="#FFFFFF" stroke-width="0.6" stroke-miterlimit="10" d="M99.297,200.039v17.4
		c0,5.273-2.536,8.523-8.063,8.523h-8.313v-34.498h8.313C96.761,191.465,99.297,194.719,99.297,200.039z M95.393,217.584v-17.74
		c0-3.156-1.368-4.881-4.259-4.881h-4.258v27.502h4.309C94.024,222.465,95.393,220.74,95.393,217.584z"/>
	<path fill="#FFFFFF" stroke="#FFFFFF" stroke-width="0.6" stroke-miterlimit="10" d="M110.805,191.117
		c5.476,0,8.163,3.4,8.163,8.674v17.844c0,5.223-2.688,8.674-8.163,8.674c-5.424,0-8.11-3.451-8.11-8.674v-17.844
		C102.694,194.518,105.381,191.117,110.805,191.117z M110.805,222.811c2.89,0,4.208-1.826,4.208-4.979v-18.236
		c0-3.105-1.318-4.979-4.208-4.979c-2.838,0-4.206,1.873-4.206,4.979v18.236C106.599,220.984,107.967,222.811,110.805,222.811z"/>
</g>
<g>
	<path fill="#8C5F25" stroke="#8C5F25" stroke-width="0.6" stroke-miterlimit="10" d="M96.856,239.449v2.951h-3.384v-3.146
		c0-3.1-1.146-4.965-3.753-4.965c-2.561,0-3.75,1.865-3.75,4.965v18.191c0,3.1,1.189,4.969,3.75,4.969
		c2.607,0,3.753-1.869,3.753-4.969v-6.883h-3.295v-3.445h6.679v10.131c0,5.213-2.287,8.654-7.227,8.654
		c-4.895,0-7.181-3.441-7.181-8.654v-17.799c0-5.213,2.286-8.652,7.181-8.652C94.569,230.797,96.856,234.236,96.856,239.449z"/>
	<path fill="#8C5F25" stroke="#8C5F25" stroke-width="0.6" stroke-miterlimit="10" d="M111.625,249.824h-7.819v12.244h9.604v3.492
		h-13.173v-34.422h13.173v3.492h-9.604v11.752h7.819V249.824z"/>
	<path fill="#8C5F25" stroke="#8C5F25" stroke-width="0.6" stroke-miterlimit="10" d="M130.97,239.006v2.805
		c0,3.783-1.234,6.145-3.979,7.078c2.928,0.936,4.024,3.492,4.024,7.182v5.357c0,1.525,0.047,2.951,0.642,4.133h-3.613
		c-0.411-0.986-0.595-1.869-0.595-4.18v-5.408c0-3.887-1.691-5.115-4.666-5.115h-2.517v14.703H116.7v-34.422h7.136
		C128.866,231.139,130.97,233.891,130.97,239.006z M127.449,242.643v-3.291c0-3.1-1.053-4.721-3.706-4.721h-3.477v12.734h2.653
		C125.758,247.365,127.449,246.383,127.449,242.643z"/>
	<path fill="#8C5F25" stroke="#8C5F25" stroke-width="0.6" stroke-miterlimit="10" d="M137.094,265.561h-3.293l6.13-34.422h5.169
		l6.129,34.422h-3.568l-1.234-6.934h-8.097L137.094,265.561z M145.922,255.332l-3.613-19.865l-3.521,19.865H145.922z"/>
	<path fill="#8C5F25" stroke="#8C5F25" stroke-width="0.6" stroke-miterlimit="10" d="M168.102,239.449v3.096h-3.383v-3.291
		c0-3.1-1.145-4.965-3.75-4.965c-2.564,0-3.75,1.865-3.75,4.965v18.191c0,3.1,1.186,4.969,3.75,4.969c2.605,0,3.75-1.869,3.75-4.969
		v-4.475h3.383v4.277c0,4.918-2.061,8.313-6.447,8.607v1.523c2.148,0,3.383,0.936,3.383,2.506c0,1.969-1.602,3.146-4.348,3.146
		c-2.648,0-4.205-1.131-4.205-3.047v-0.393h2.33v0.346c0,0.785,0.686,1.326,1.875,1.426c1.238,0,1.969-0.59,1.969-1.576
		c0-0.936-0.822-1.473-2.242-1.473h-0.412v-2.459c-4.299-0.346-6.311-3.74-6.311-8.607v-17.799c0-5.213,2.287-8.652,7.182-8.652
		C165.816,230.797,168.102,234.236,168.102,239.449z"/>
	<path fill="#8C5F25" stroke="#8C5F25" stroke-width="0.6" stroke-miterlimit="10" d="M185.801,239.449v17.799
		c0,5.213-2.424,8.654-7.365,8.654c-4.895,0-7.318-3.441-7.318-8.654v-17.799c0-5.264,2.424-8.652,7.318-8.652
		C183.377,230.797,185.801,234.186,185.801,239.449z M180.859,228.926c-1.781,0.051-2.789-1.426-4.205-1.426
		c-0.826,0-1.42,0.393-1.924,1.477l-1.783-1.326c0.779-2.02,1.969-2.805,3.385-2.854c1.83,0,2.834,1.475,4.209,1.475
		c0.779-0.053,1.328-0.445,1.828-1.475l1.738,1.328C183.422,228.09,182.279,228.926,180.859,228.926z M174.643,239.254v18.191
		c0,3.146,1.232,4.969,3.793,4.969c2.605,0,3.795-1.822,3.795-4.969v-18.191c0-3.1-1.189-4.965-3.795-4.965
		C175.875,234.289,174.643,236.154,174.643,239.254z"/>
	<path fill="#8C5F25" stroke="#8C5F25" stroke-width="0.6" stroke-miterlimit="10" d="M200.568,249.824h-7.818v12.244h9.602v3.492
		H189.18v-34.422h13.172v3.492h-9.602v11.752h7.818V249.824z"/>
	<path fill="#8C5F25" stroke="#8C5F25" stroke-width="0.6" stroke-miterlimit="10" d="M219.592,239.398v0.936h-3.383v-1.131
		c0-3.096-1.098-4.914-3.662-4.914c-2.561,0-3.658,1.818-3.658,4.865c0,7.721,10.752,8.459,10.752,18.145
		c0,5.209-2.336,8.604-7.227,8.604c-4.896,0-7.184-3.395-7.184-8.604v-1.967h3.34v2.164c0,3.096,1.189,4.918,3.75,4.918
		s3.75-1.822,3.75-4.918c0-7.672-10.703-8.41-10.703-18.098c0-5.311,2.287-8.602,7.09-8.602
		C217.305,230.797,219.592,234.186,219.592,239.398z"/>
</g>
<g>
	<defs>
		<rect id="SVGID_1_" width="300" height="300"/>
	</defs>
	<clipPath id="SVGID_2_">
		<use xlink:href="#SVGID_1_"  overflow="visible"/>
	</clipPath>
	<g clip-path="url(#SVGID_2_)">
		<polygon fill="#FFFFFF" points="155.582,199.813 158.867,210.602 162.152,221.402 165.438,210.602 168.727,199.813 
			162.152,199.813 		"/>
		<path fill="#FFFFFF" d="M195.201,75.604h-17.883l-5.313-4.039H151.84l-5.313,4.039h-17.423c-1.23,0-2.228,0.995-2.228,2.226v6.839
			c0,1.23,0.997,2.228,2.228,2.228h22.735h3.742v113.158h13.145V86.896h3.279h23.195c1.229,0,2.225-0.997,2.225-2.228V77.83
			C197.426,76.6,196.43,75.604,195.201,75.604z"/>
	</g>
	<polygon clip-path="url(#SVGID_2_)" fill="#FFFFFF" points="216.209,45.976 204.709,39.691 192.967,32.5 192.967,28.461 
		180.438,28.461 180.438,32.5 157.365,32.5 157.365,56.403 180.438,56.403 180.438,221.402 192.967,221.402 192.967,56.403 
		216.209,56.403 216.209,45.978 216.057,45.978 	"/>
</g>
</svg>
